# xmcd
#
# Track frame offsets: 
#        150
#        12472
#        36189
#        50335
#        76224
#        93381
#        108140
#        131202
#        141592
#
# Disc length: 2159 seconds
#
# Revision: 0
# Processed by: cddbd v1.5.2PL0 Copyright (c) Steve Scherf et al.
# Submitted via: ExactAudioCopy v0.95b3
#
DISCID=76086d09
DTITLE=West, Bruce and Laing  - Whatever Turns You On
DYEAR=1900
DGENRE=
TTITLE0=Back Fire
TTITLE1=Token
TTITLE2=Sifting sand
TTITLE3=November song
TTITLE4=Rock and roll machine
TTITLE5=Scotch krotch
TTITLE6=Slow blues
TTITLE7=Dirty shoes
TTITLE8=Like a plate
EXTD=
EXTT0=
EXTT1=
EXTT2=
EXTT3=
EXTT4=
EXTT5=
EXTT6=
EXTT7=
EXTT8=
PLAYORDER=
